<svg xmlns="http://www.w3.org/2000/svg" xmlns:xlink="http://www.w3.org/1999/xlink" width="1920" zoomAndPan="magnify" viewBox="0 0 1440 809.999993" height="1080" preserveAspectRatio="xMidYMid meet" version="1.0"><defs><clipPath id="86b42c1d0b"><path d="M 18 17 L 611 17 L 611 611 L 18 611 Z M 18 17 " clip-rule="nonzero"/></clipPath><clipPath id="0d3fdab5c2"><path d="M 1.554688 0.164062 L 628.320312 1.257812 L 627.226562 628.027344 L 0.460938 626.933594 Z M 1.554688 0.164062 " clip-rule="nonzero"/></clipPath><clipPath id="7cf09c45b6"><path d="M 1.554688 0.164062 L 628.320312 1.257812 L 627.226562 628.027344 L 0.460938 626.933594 Z M 1.554688 0.164062 " clip-rule="nonzero"/></clipPath><clipPath id="79cb9f2a84"><path d="M 76.867188 72.867188 L 553.132812 72.867188 L 553.132812 549.132812 L 76.867188 549.132812 Z M 76.867188 72.867188 " clip-rule="nonzero"/></clipPath><clipPath id="d69764a256"><path d="M 76.867188 134.78125 L 76.867188 487.21875 C 76.867188 521.414062 104.585938 549.132812 138.78125 549.132812 L 491.21875 549.132812 C 525.414062 549.132812 553.132812 521.414062 553.132812 487.21875 L 553.132812 134.78125 C 553.132812 100.585938 525.414062 72.867188 491.21875 72.867188 L 138.78125 72.867188 C 104.585938 72.867188 76.867188 100.585938 76.867188 134.78125 Z M 76.867188 134.78125 " clip-rule="nonzero"/></clipPath><clipPath id="745f3f2808"><path d="M 0.761719 0.28125 L 24.761719 0.28125 L 24.761719 331.960938 L 0.761719 331.960938 Z M 0.761719 0.28125 " clip-rule="nonzero"/></clipPath><clipPath id="e03e22f419"><rect x="0" width="25" y="0" height="332"/></clipPath><clipPath id="2ca5f6105a"><path d="M 0.28125 0.28125 L 24.28125 0.28125 L 24.28125 331.960938 L 0.28125 331.960938 Z M 0.28125 0.28125 " clip-rule="nonzero"/></clipPath><clipPath id="1fcf3edb58"><rect x="0" width="25" y="0" height="332"/></clipPath><clipPath id="24d689e27a"><path d="M 0.800781 0.28125 L 24.800781 0.28125 L 24.800781 331.960938 L 0.800781 331.960938 Z M 0.800781 0.28125 " clip-rule="nonzero"/></clipPath><clipPath id="80900a1335"><rect x="0" width="25" y="0" height="332"/></clipPath><clipPath id="22a55d7b2d"><path d="M 0.320312 0.28125 L 24.320312 0.28125 L 24.320312 331.960938 L 0.320312 331.960938 Z M 0.320312 0.28125 " clip-rule="nonzero"/></clipPath><clipPath id="ffba336af2"><rect x="0" width="25" y="0" height="332"/></clipPath><clipPath id="a9b83fcb8e"><path d="M 0.078125 0.878906 L 371.601562 0.878906 L 371.601562 322.480469 L 0.078125 322.480469 Z M 0.078125 0.878906 " clip-rule="nonzero"/></clipPath><clipPath id="b61d88e965"><rect x="0" width="372" y="0" height="323"/></clipPath><clipPath id="bba4997cb9"><rect x="0" width="629" y="0" height="629"/></clipPath></defs><g transform="matrix(1, 0, 0, 1, 405, 94)"><g clip-path="url(#bba4997cb9)"><g clip-path="url(#86b42c1d0b)"><g clip-path="url(#0d3fdab5c2)"><g clip-path="url(#7cf09c45b6)"><path stroke-linecap="butt" transform="matrix(1.566915, 0.00273479, -0.00273479, 1.566915, 1.555533, 0.165621)" fill="none" stroke-linejoin="miter" d="M 85.000532 45.000569 L 315.000609 45.000509 C 316.309411 45.000717 317.615829 45.063254 318.919871 45.193105 C 320.223909 45.320462 321.518089 45.512654 322.802409 45.76968 C 324.089219 46.024209 325.358686 46.341091 326.610816 46.722821 C 327.865435 47.102053 329.097725 47.543649 330.307684 48.045114 C 331.517643 48.546579 332.700279 49.10543 333.855597 49.72416 C 335.010911 50.340396 336.133917 51.014027 337.222113 51.740071 C 338.312806 52.468603 339.363703 53.249557 340.3748 54.08044 C 341.38839 54.911318 342.35719 55.78964 343.283692 56.715403 C 344.210195 57.641165 345.089409 58.611883 345.921332 59.625064 C 346.750757 60.635756 347.530397 61.688916 348.257746 62.777068 C 348.987589 63.865216 349.660154 64.988365 350.277931 66.144018 C 350.893215 67.299675 351.453702 68.482851 351.954406 69.693553 C 352.457599 70.901759 352.898512 72.135002 353.277135 73.388298 C 353.658252 74.641589 353.974582 75.912445 354.231104 77.195869 C 354.48763 78.481786 354.679352 79.775296 354.806275 81.07889 C 354.935691 82.38248 355.000299 83.691169 355.00009 84.999971 L 355.000151 315.000048 C 354.999942 316.30885 354.934917 317.617765 354.807559 318.921803 C 354.680197 320.223348 354.488005 321.517528 354.230984 322.804341 C 353.976451 324.088658 353.657075 325.358129 353.277838 326.610255 C 352.896113 327.864878 352.457011 329.097164 351.955545 330.307123 C 351.45408 331.517082 350.895229 332.699718 350.2765 333.855036 C 349.660263 335.01035 348.986632 336.133356 348.258095 337.221556 C 347.532056 338.312245 346.751102 339.363142 345.920224 340.376732 C 345.089342 341.387829 344.211024 342.359122 343.285257 343.283131 C 342.357001 344.209638 341.388776 345.088848 340.375595 345.920771 C 339.362414 346.752693 338.311744 347.529836 337.223596 348.259678 C 336.132951 348.987032 335.012295 349.659593 333.856641 350.27737 C 332.700988 350.895147 331.517808 351.453141 330.30711 351.956338 C 329.096408 352.457042 327.865657 352.897951 326.612361 353.276574 C 325.356577 353.657695 324.088219 353.976514 322.80479 354.230543 C 321.518873 354.487069 320.225364 354.678791 318.921774 354.808207 C 317.61818 354.93513 316.309491 354.999738 315.000689 354.999529 L 85.000611 354.99959 C 83.689316 354.999385 82.382898 354.936848 81.078856 354.806998 C 79.774818 354.67964 78.480639 354.487448 77.196318 354.230423 C 75.912002 353.97589 74.642534 353.659007 73.387911 353.277282 C 72.135786 352.898045 70.903495 352.456449 69.693536 351.954984 C 68.483578 351.453519 67.298448 350.894672 66.14313 350.275943 C 64.987816 349.659706 63.867303 348.986071 62.77661 348.257539 C 61.688415 347.531495 60.637517 346.750541 59.623927 345.919663 C 58.61283 345.088781 57.641537 344.210462 56.715035 343.2847 C 55.788533 342.358938 54.911811 341.388215 54.079889 340.375034 C 53.247966 339.361853 52.46833 338.311187 51.740981 337.223035 C 51.013627 336.13239 50.341066 335.011733 49.723289 333.85608 C 49.105512 332.700427 48.545025 331.517252 48.044321 330.306549 C 47.543617 329.095847 47.102709 327.865096 46.721592 326.611805 C 46.342968 325.358509 46.024145 324.087658 45.767624 322.804234 C 45.513591 321.518312 45.321868 320.224803 45.192453 318.921213 C 45.063037 317.617623 45.000922 316.30893 45.00113 315.000128 L 45.00107 85.00005 C 44.998781 83.68876 45.063811 82.382337 45.193661 81.078295 C 45.321024 79.77675 45.513211 78.480078 45.767744 77.195761 C 46.02477 75.911441 46.341652 74.641973 46.723382 73.389843 C 47.102615 72.135225 47.54421 70.902934 48.045675 69.692975 C 48.54714 68.483017 49.105991 67.30038 49.722228 66.145066 C 50.340957 64.989748 51.014588 63.866742 51.740628 62.776054 C 52.469164 61.687853 53.247625 60.636961 54.078503 59.62337 C 54.911879 58.612269 55.790197 57.640976 56.715964 56.716967 C 57.641726 55.790465 58.612444 54.91125 59.623132 54.079332 C 60.636313 53.247409 61.686984 52.470266 62.777625 51.74042 C 63.865777 51.013071 64.988926 50.340505 66.144579 49.722728 C 67.300232 49.104951 68.483412 48.546957 69.691617 48.043764 C 70.90232 47.54306 72.135563 47.102148 73.388859 46.723524 C 74.642151 46.342407 75.910508 46.023588 77.19643 45.769555 C 78.482347 45.51303 79.775857 45.321307 81.079447 45.191891 C 82.383041 45.064968 83.689237 45.000365 85.000532 45.000569 Z M 85.000532 45.000569 " stroke="#ffffff" stroke-width="6" stroke-opacity="1" stroke-miterlimit="4"/></g></g></g><g clip-path="url(#79cb9f2a84)"><g clip-path="url(#d69764a256)"><path fill="#000000" d="M 76.867188 72.867188 L 553.132812 72.867188 L 553.132812 549.132812 L 76.867188 549.132812 Z M 76.867188 72.867188 " fill-opacity="1" fill-rule="nonzero"/></g></g><g transform="matrix(1, 0, 0, 1, 164, 145)"><g clip-path="url(#e03e22f419)"><g clip-path="url(#745f3f2808)"><path stroke-linecap="butt" transform="matrix(0, 0.952533, -0.952533, 0, 24.591695, 12.749988)" fill="none" stroke-linejoin="miter" d="M 0.0000127924 12.501504 L 321.773479 12.501504 " stroke="#cb8bf8" stroke-width="25" stroke-opacity="1" stroke-miterlimit="4"/></g></g></g><g transform="matrix(1, 0, 0, 1, 254, 145)"><g clip-path="url(#1fcf3edb58)"><g clip-path="url(#2ca5f6105a)"><path stroke-linecap="butt" transform="matrix(0, 0.952533, -0.952533, 0, 24.129855, 12.749988)" fill="none" stroke-linejoin="miter" d="M 0.0000127924 12.500556 L 321.773479 12.500556 " stroke="#cb8bf8" stroke-width="25" stroke-opacity="1" stroke-miterlimit="4"/></g></g></g><g transform="matrix(1, 0, 0, 1, 343, 145)"><g clip-path="url(#80900a1335)"><g clip-path="url(#24d689e27a)"><path stroke-linecap="butt" transform="matrix(0, 0.952533, -0.952533, 0, 24.668014, 12.749988)" fill="none" stroke-linejoin="miter" d="M 0.0000127924 12.499608 L 321.773479 12.499608 " stroke="#cb8bf8" stroke-width="25" stroke-opacity="1" stroke-miterlimit="4"/></g></g></g><g transform="matrix(1, 0, 0, 1, 433, 145)"><g clip-path="url(#ffba336af2)"><g clip-path="url(#22a55d7b2d)"><path stroke-linecap="butt" transform="matrix(0, 0.952533, -0.952533, 0, 24.316564, 12.749988)" fill="none" stroke-linejoin="miter" d="M 0.0000127924 12.499727 L 321.773479 12.499727 " stroke="#cb8bf8" stroke-width="25" stroke-opacity="1" stroke-miterlimit="4"/></g></g></g><g transform="matrix(1, 0, 0, 1, 127, 148)"><g clip-path="url(#b61d88e965)"><g clip-path="url(#a9b83fcb8e)"><path stroke-linecap="butt" transform="matrix(0.725003, -0.617812, 0.617812, 0.725003, 9.527987, 296.21675)" fill="none" stroke-linejoin="miter" d="M 0.000813058 12.49802 L 465.35976 12.498482 " stroke="#cb8bf8" stroke-width="25" stroke-opacity="1" stroke-miterlimit="4"/></g></g></g></g></g></svg>