<svg xmlns="http://www.w3.org/2000/svg" xmlns:xlink="http://www.w3.org/1999/xlink" width="1920" zoomAndPan="magnify" viewBox="0 0 1440 809.999993" height="1080" preserveAspectRatio="xMidYMid meet" version="1.0"><defs><clipPath id="af34c8711a"><path d="M 61 0.320312 L 101 0.320312 L 101 539.601562 L 61 539.601562 Z M 61 0.320312 " clip-rule="nonzero"/></clipPath><clipPath id="ebbab6d13e"><path d="M 0.558594 1 L 39.441406 1 L 39.441406 539 L 0.558594 539 Z M 0.558594 1 " clip-rule="nonzero"/></clipPath><clipPath id="45c707d71b"><rect x="0" width="40" y="0" height="540"/></clipPath><clipPath id="6fb88ac88a"><path d="M 207 0.320312 L 247 0.320312 L 247 539.601562 L 207 539.601562 Z M 207 0.320312 " clip-rule="nonzero"/></clipPath><clipPath id="47d800f53e"><path d="M 0.238281 1 L 39.121094 1 L 39.121094 539 L 0.238281 539 Z M 0.238281 1 " clip-rule="nonzero"/></clipPath><clipPath id="a778e73db6"><rect x="0" width="40" y="0" height="540"/></clipPath><clipPath id="c42c5e51bd"><path d="M 352 0.320312 L 392 0.320312 L 392 539.601562 L 352 539.601562 Z M 352 0.320312 " clip-rule="nonzero"/></clipPath><clipPath id="68fab7d410"><path d="M 0.921875 1 L 39.800781 1 L 39.800781 539 L 0.921875 539 Z M 0.921875 1 " clip-rule="nonzero"/></clipPath><clipPath id="6b3f8d147f"><rect x="0" width="40" y="0" height="540"/></clipPath><clipPath id="a7cfcf854e"><path d="M 498 0.320312 L 538 0.320312 L 538 539.601562 L 498 539.601562 Z M 498 0.320312 " clip-rule="nonzero"/></clipPath><clipPath id="ff95e553a2"><path d="M 0.601562 1 L 39.480469 1 L 39.480469 539 L 0.601562 539 Z M 0.601562 1 " clip-rule="nonzero"/></clipPath><clipPath id="8ef0517893"><rect x="0" width="40" y="0" height="540"/></clipPath><clipPath id="61c66b3eb6"><path d="M 0.359375 6 L 604.679688 6 L 604.679688 530 L 0.359375 530 Z M 0.359375 6 " clip-rule="nonzero"/></clipPath><clipPath id="688826b0a2"><path d="M 0.359375 0.078125 L 604.679688 0.078125 L 604.679688 523.039062 L 0.359375 523.039062 Z M 0.359375 0.078125 " clip-rule="nonzero"/></clipPath><clipPath id="ad2db14a39"><rect x="0" width="605" y="0" height="524"/></clipPath><clipPath id="8840686cce"><rect x="0" width="605" y="0" height="540"/></clipPath></defs><g transform="matrix(1, 0, 0, 1, 417, 136)"><g clip-path="url(#8840686cce)"><g clip-path="url(#af34c8711a)"><g transform="matrix(1, 0, 0, 1, 61, 0.000000000000056843)"><g clip-path="url(#45c707d71b)"><g clip-path="url(#ebbab6d13e)"><path stroke-linecap="butt" transform="matrix(0, 1.549162, -1.549162, 0, 39.414785, 20.510452)" fill="none" stroke-linejoin="miter" d="M 0.00081798 12.499667 L 321.775175 12.499667 " stroke="#cb8bf8" stroke-width="25" stroke-opacity="1" stroke-miterlimit="4"/></g></g></g></g><g clip-path="url(#6fb88ac88a)"><g transform="matrix(1, 0, 0, 1, 207, 0.000000000000056843)"><g clip-path="url(#a778e73db6)"><g clip-path="url(#47d800f53e)"><path stroke-linecap="butt" transform="matrix(0, 1.549162, -1.549162, 0, 39.036008, 20.510452)" fill="none" stroke-linejoin="miter" d="M 0.00081798 12.49975 L 321.775175 12.49975 " stroke="#cb8bf8" stroke-width="25" stroke-opacity="1" stroke-miterlimit="4"/></g></g></g></g><g clip-path="url(#c42c5e51bd)"><g transform="matrix(1, 0, 0, 1, 352, 0.000000000000056843)"><g clip-path="url(#6b3f8d147f)"><g clip-path="url(#68fab7d410)"><path stroke-linecap="butt" transform="matrix(0, 1.549162, -1.549162, 0, 39.657231, 20.510452)" fill="none" stroke-linejoin="miter" d="M 0.00081798 12.499834 L 321.775175 12.499834 " stroke="#cb8bf8" stroke-width="25" stroke-opacity="1" stroke-miterlimit="4"/></g></g></g></g><g clip-path="url(#a7cfcf854e)"><g transform="matrix(1, 0, 0, 1, 498, 0.000000000000056843)"><g clip-path="url(#8ef0517893)"><g clip-path="url(#ff95e553a2)"><path stroke-linecap="butt" transform="matrix(0, 1.549162, -1.549162, 0, 39.457927, 20.510452)" fill="none" stroke-linejoin="miter" d="M 0.00081798 12.499779 L 321.775175 12.499779 " stroke="#cb8bf8" stroke-width="25" stroke-opacity="1" stroke-miterlimit="4"/></g></g></g></g><g clip-path="url(#61c66b3eb6)"><g transform="matrix(1, 0, 0, 1, 0, 6)"><g clip-path="url(#ad2db14a39)"><g clip-path="url(#688826b0a2)"><path stroke-linecap="butt" transform="matrix(1.179114, -1.004784, 1.004784, 1.179114, 15.740434, 480.408357)" fill="none" stroke-linejoin="miter" d="M -0.000211662 12.500795 L 465.358797 12.500195 " stroke="#cb8bf8" stroke-width="25" stroke-opacity="1" stroke-miterlimit="4"/></g></g></g></g></g></g></svg>